HIERARCHY
ROOT root
{
	OFFSET 0.000000 0.000000 0.000000
	CHANNELS 6 Xposition Yposition Zposition Zrotation Yrotation Xrotation
	JOINT lhip
	{
		OFFSET 0.058581 -0.082280 -0.017664
		CHANNELS 3 Zrotation Yrotation Xrotation
		JOINT lknee
		{
			OFFSET 0.043451 -0.386469 0.008037
			CHANNELS 3 Zrotation Yrotation Xrotation
			JOINT lankle
			{
				OFFSET -0.014790 -0.426874 -0.037428
				CHANNELS 3 Zrotation Yrotation Xrotation
				JOINT ltoe
				{
					OFFSET 0.041054 -0.060286 0.122042
					CHANNELS 3 Zrotation Yrotation Xrotation
					End Site
					{
						OFFSET 0.000000 0.000000 0.000000
					}
				}
			}
		}
	}
	JOINT rhip
	{
		OFFSET -0.060310 -0.090513 -0.013543
		CHANNELS 3 Zrotation Yrotation Xrotation
		JOINT rknee
		{
			OFFSET -0.043257 -0.383688 -0.004843
			CHANNELS 3 Zrotation Yrotation Xrotation
			JOINT rankle
			{
				OFFSET 0.019056 -0.420046 -0.034562
				CHANNELS 3 Zrotation Yrotation Xrotation
				JOINT rtoe
				{
					OFFSET -0.034840 -0.062106 0.130323
					CHANNELS 3 Zrotation Yrotation Xrotation
					End Site
					{
						OFFSET 0.000000 0.000000 0.000000
					}
				}
			}
		}
	}
	JOINT lowerback
	{
		OFFSET 0.004439 0.124404 -0.038385
		CHANNELS 3 Zrotation Yrotation Xrotation
		JOINT upperback
		{
			OFFSET 0.004488 0.137956 0.026820
			CHANNELS 3 Zrotation Yrotation Xrotation
			JOINT chest
			{
				OFFSET -0.002265 0.056032 0.002855
				CHANNELS 3 Zrotation Yrotation Xrotation
				JOINT lowerneck
				{
					OFFSET -0.013390 0.211636 -0.033468
					CHANNELS 3 Zrotation Yrotation Xrotation
					JOINT upperneck
					{
						OFFSET 0.010113 0.088937 0.050410
						CHANNELS 3 Zrotation Yrotation Xrotation
						End Site
						{
							OFFSET 0.000000 0.000000 0.000000
						}
					}
				}
				JOINT lclavicle
				{
					OFFSET 0.071702 0.114000 -0.018898
					CHANNELS 3 Zrotation Yrotation Xrotation
					JOINT lshoulder
					{
						OFFSET 0.122921 0.045205 -0.019046
						CHANNELS 3 Zrotation Yrotation Xrotation
						JOINT lelbow
						{
							OFFSET 0.255332 -0.015649 -0.022946
							CHANNELS 3 Zrotation Yrotation Xrotation
							JOINT lwrist
							{
								OFFSET 0.265709 0.012698 -0.007375
								CHANNELS 3 Zrotation Yrotation Xrotation
								End Site
								{
									OFFSET 0.000000 0.000000 0.000000
								}
							}
						}
					}
				}
				JOINT rclavicle
				{
					OFFSET -0.082954 0.112472 -0.023707
					CHANNELS 3 Zrotation Yrotation Xrotation
					JOINT rshoulder
					{
						OFFSET -0.113228 0.046853 -0.008472
						CHANNELS 3 Zrotation Yrotation Xrotation
						JOINT relbow
						{
							OFFSET -0.260127 -0.014369 -0.031269
							CHANNELS 3 Zrotation Yrotation Xrotation
							JOINT rwrist
							{
								OFFSET -0.269108 0.006794 -0.006027
								CHANNELS 3 Zrotation Yrotation Xrotation
								End Site
								{
									OFFSET 0.000000 0.000000 0.000000
								}
							}
						}
					}
				}
			}
		}
	}
}
MOTION
Frames: 11
Frame Time: 0.033333
-1.777973 0.225996 1.019492 90.116364 2.120031 94.457457 -4.192614 -0.369389 -3.758178 -0.315528 -11.507855 14.151027 5.332718 18.089290 -22.771002 0.000000 -0.000000 0.000000 -6.106083 3.427794 -36.387979 1.802745 5.554769 17.155441 4.062002 -7.207162 -0.178345 0.000000 -0.000000 0.000000 0.534005 -3.859270 10.429497 5.491844 -1.445465 0.471703 0.413418 -0.239983 -9.059639 -1.459099 -5.317813 -4.451197 3.054990 3.508265 5.630817 -32.538312 6.009171 -4.480033 -49.611124 -1.608645 21.190609 3.612109 -20.789535 6.051823 -8.121553 -8.427789 12.850775 32.271802 -3.906910 -2.602312 42.521234 -3.481189 14.338517 0.456075 19.794161 2.029157 7.105739 7.586181 10.183819 
-1.761574 0.221394 1.015474 89.360932 1.906408 94.369054 -4.201114 1.061752 -1.836700 0.482134 -11.314563 12.647492 4.998616 17.213019 -22.544367 0.000000 -0.000000 0.000000 -5.715735 3.491713 -36.356897 0.868690 5.200832 14.356467 4.167080 -6.450220 0.319541 0.000000 -0.000000 0.000000 0.394054 -4.162043 7.674125 5.347707 -1.321537 5.345998 0.263214 -0.348823 -10.194982 -0.672518 -3.378384 -4.434499 2.018693 2.810696 5.036576 -31.544197 4.529401 -3.981088 -50.843114 -1.059866 19.870053 5.974891 -21.298748 2.673914 -11.563697 -7.877429 14.942467 31.382159 -1.776998 -2.401287 44.131929 -4.296024 14.660488 -1.026517 19.223737 -0.286346 10.029983 7.154956 10.535182 
-1.746574 0.216134 1.011530 90.294845 1.930039 94.581885 -3.465707 0.469763 -1.145669 0.162018 -11.490449 12.986549 4.375020 16.914576 -23.194538 0.000000 -0.000000 0.000000 -5.497976 3.125199 -36.630840 0.749696 4.760366 13.878744 4.285007 -6.373935 0.953460 0.000000 -0.000000 0.000000 0.555628 -3.916129 8.011562 5.607996 -1.769850 4.205934 0.498233 -0.799094 -10.005699 -1.483924 -3.576735 -2.946465 2.264688 2.924890 4.675667 -31.715973 3.965386 -3.368971 -51.010530 -0.962652 19.994357 6.564981 -21.210340 2.592031 -10.165776 -9.173119 13.605897 30.506542 -1.700620 -1.413910 44.979988 -4.379410 14.246557 -1.124429 18.364164 0.434704 9.446839 7.720829 10.421698 
-1.722484 0.208524 1.006881 91.019525 1.918664 94.372695 -2.646910 0.350648 0.926245 0.051518 -11.919986 12.914576 4.007381 16.790274 -24.127700 0.000000 -0.000000 0.000000 -5.235228 3.486823 -36.657913 1.124734 4.443080 16.696369 4.261258 -5.917164 1.440399 0.000000 -0.000000 0.000000 0.663721 -4.448943 7.794181 5.523473 -1.678988 4.942543 0.279673 -0.450719 -9.524551 -1.248641 -4.024761 -4.767652 2.421857 3.040447 5.073440 -31.688452 5.060308 -3.884079 -51.064429 -2.530815 21.599609 6.873197 -21.584279 1.885031 -10.428848 -8.686427 13.346353 31.031309 -2.898966 -2.630555 44.404303 -4.269871 15.041477 -0.747967 18.765973 -0.176798 10.650822 6.847643 11.457405 
-1.707408 0.203008 1.004504 91.564377 1.989598 94.500505 -1.884068 0.126278 1.921100 -0.211856 -12.183102 13.017203 4.148328 16.820006 -24.601253 0.000000 -0.000000 0.000000 -4.745766 3.479016 -36.788195 1.341655 4.812465 18.286881 4.284346 -5.877318 3.005049 0.000000 -0.000000 0.000000 0.733575 -4.360028 7.696042 5.734917 -1.782570 4.615006 0.424566 -0.892440 -9.298231 -1.021875 -3.747644 -5.262878 1.863948 2.875159 5.401393 -31.859089 4.344596 -4.452611 -50.990860 -1.205930 20.778138 6.889745 -22.237880 2.437013 -9.836827 -9.146042 12.832646 30.888691 -2.701094 -3.160125 44.176521 -5.058766 14.925417 -0.266054 18.764461 1.190242 10.461536 6.484311 10.231559 
-1.687404 0.194920 1.002543 92.827731 2.125566 94.826585 -0.747125 -0.061421 2.332667 -0.429742 -12.565913 14.357551 3.666368 16.105920 -25.012454 0.000000 -0.000000 0.000000 -4.225961 3.021574 -37.403831 1.427482 4.089346 21.024717 4.377277 -6.128647 4.712119 0.000000 -0.000000 0.000000 0.781222 -4.563632 8.433200 5.993727 -1.710232 2.138661 0.744695 -1.400597 -8.512408 -1.261045 -3.925642 -4.891067 1.774381 3.131778 6.026457 -32.082110 4.531458 -4.655229 -51.158625 -0.755932 21.480062 7.310527 -22.513337 2.363492 -8.962666 -9.446359 11.823587 30.842704 -3.536439 -3.326780 43.872327 -5.208001 14.763921 0.115952 18.993668 1.627372 10.615201 6.230040 10.210104 
-1.665769 0.186397 1.002858 93.093547 2.043314 94.954006 0.118659 -0.111411 3.051695 -1.283321 -13.529929 15.909135 3.089863 16.763256 -24.578940 0.000000 -0.000000 0.000000 -4.233476 3.186911 -37.666817 2.357936 3.317426 24.033459 3.906765 -6.630608 4.306117 0.000000 -0.000000 0.000000 0.510494 -4.902509 6.498711 6.234344 -1.869784 4.817281 0.547592 -1.271128 -9.163048 -0.918544 -3.463035 -5.453906 1.609830 2.864334 6.510482 -32.009439 4.545393 -4.463319 -51.199548 -1.531158 20.645137 7.262584 -22.523144 1.536878 -9.232667 -9.022018 12.450373 31.459682 -2.874016 -3.423441 43.593179 -4.818547 14.543145 -0.024324 18.233420 0.387648 10.043220 6.655625 10.829413 
-1.643851 0.177416 1.004574 93.453582 2.283698 94.832919 1.344138 -0.956662 3.383686 -2.265214 -13.316454 18.623675 1.984532 16.717006 -23.412405 0.000000 -0.000000 0.000000 -4.025714 4.315254 -37.174629 3.162365 2.481367 26.337683 2.684953 -6.931647 3.404345 0.000000 -0.000000 0.000000 0.629484 -5.145838 6.625078 6.260825 -1.736816 4.590577 0.633306 -1.260710 -9.113977 -0.563879 -2.414107 -5.411400 1.195909 2.249857 6.504909 -31.673853 4.806057 -4.405527 -51.756103 -1.622725 19.610665 7.477652 -22.863490 1.482386 -9.784933 -9.742265 13.271686 31.446140 -2.614980 -2.845088 43.844920 -4.477130 14.077769 -0.450320 17.143916 0.699516 9.941046 7.752893 10.785171 
-1.620946 0.167657 1.008418 93.414783 2.274760 94.446181 2.597982 -1.023944 3.625501 -3.800398 -13.034735 22.094813 1.033001 16.215082 -21.799466 0.000000 -0.000000 0.000000 -3.244437 5.185156 -35.601788 3.328461 2.333064 27.548765 1.324076 -7.145137 1.915051 0.000000 -0.000000 0.000000 0.323251 -5.019552 6.311915 6.331135 -1.655498 5.195290 0.677775 -1.451683 -9.298494 0.068145 -1.582669 -5.708531 0.497330 1.379957 6.989463 -31.436561 5.136804 -4.831450 -51.866056 -1.296230 19.220071 7.600377 -23.225156 1.143099 -10.565247 -9.980336 13.990835 31.728163 -2.284368 -2.909417 43.793584 -4.199107 14.723527 -0.754788 15.925067 0.660193 9.820394 9.235634 10.543612 
-1.592236 0.156178 1.012150 93.472293 2.050108 94.727679 4.155833 -1.773431 1.275922 -6.648349 -11.041223 28.948864 0.039059 15.343242 -17.781099 0.000000 -0.000000 0.000000 -2.295930 5.782247 -34.065252 3.452526 2.502901 28.403584 -0.305089 -7.684764 -0.133031 0.000000 -0.000000 0.000000 0.143754 -4.616047 5.142957 5.734092 -2.011014 4.823455 0.513047 -0.883100 -8.413943 0.669989 -1.626272 -5.643903 0.294467 1.016753 7.483132 -30.963201 5.864498 -5.552975 -51.695175 -1.775447 19.672779 7.550789 -24.002348 0.666816 -11.291613 -7.798858 13.256673 31.742341 -2.559572 -3.735713 44.051947 -4.451088 15.254994 -0.080432 18.602252 -0.282258 9.531408 6.069408 9.879426 
-1.570366 0.147164 1.016563 93.225043 1.899834 94.507562 5.640610 -1.774969 -1.626650 -8.846700 -8.150333 36.407624 -0.540735 14.135959 -13.630227 0.000000 -0.000000 0.000000 -1.635900 5.337358 -32.014629 4.012913 2.563615 28.459898 -1.371639 -7.154229 -1.858549 0.000000 -0.000000 0.000000 0.026080 -3.633102 4.305772 5.572866 -2.436441 5.540987 0.471516 -1.627107 -8.543010 1.356248 -0.370970 -5.760547 -0.615983 0.286451 8.236508 -30.020844 5.022991 -4.696044 -52.339790 -0.884983 16.922532 8.169760 -24.801369 -0.189272 -11.570691 -8.091284 14.185633 31.211636 -1.234361 -3.530491 44.723473 -3.983886 14.713501 0.263767 18.311458 0.553716 9.082006 6.241665 9.061132 
